<?xml version="1.0" encoding="UTF-8"?>
<svg version="1.1" xmlns="http://www.w3.org/2000/svg" width="217" height="213">
<path d="M0 0 C4.34269412 0.0063952 8.68538951 0.00684976 13.02808762 0.00802541 C21.19395063 0.01109234 29.35979972 0.01924085 37.5256567 0.0293749 C46.84665481 0.04068309 56.1676537 0.04608293 65.488657 0.05107033 C84.60931159 0.06142926 103.72995335 0.07893542 122.85059738 0.10139394 C123.85059738 3.10139394 123.85059738 3.10139394 122.85059738 6.10139394 C124.83059738 6.76139394 126.81059738 7.42139394 128.85059738 8.10139394 C128.85059738 9.09139394 128.85059738 10.08139394 128.85059738 11.10139394 C129.84059738 11.43139394 130.83059738 11.76139394 131.85059738 12.10139394 C135.42571595 19.65257896 135.24786158 27.21152217 135.13184738 35.38508534 C135.10066379 37.59668431 135.09085874 39.80756528 135.08497238 42.01936269 C135.0519991 47.82972844 135.00619346 53.59692385 134.27637863 59.37092519 C133.90234518 62.6480073 133.97447492 64.23201947 134.78809738 67.28889394 C136.4262461 73.46768305 136.01298535 79.75924145 135.85059738 86.10139394 C136.51059738 86.10139394 137.17059738 86.10139394 137.85059738 86.10139394 C137.85059738 101.28139394 137.85059738 116.46139394 137.85059738 132.10139394 C137.19059738 132.10139394 136.53059738 132.10139394 135.85059738 132.10139394 C135.85059738 135.07139394 135.85059738 138.04139394 135.85059738 141.10139394 C136.51059738 141.10139394 137.17059738 141.10139394 137.85059738 141.10139394 C137.9434826 148.42953254 138.01445555 155.75754316 138.05784607 163.08615232 C138.07867684 166.48955712 138.10690996 169.89255769 138.15235519 173.29572988 C138.20433088 177.212672 138.22358007 181.12945328 138.24122238 185.04670644 C138.27219009 186.870463 138.27219009 186.870463 138.30378342 188.73106313 C138.30548539 195.15719256 138.2656486 199.2612612 133.85059738 204.10139394 C130.13991972 207.69905604 126.75540158 208.98730086 121.78809738 210.28889394 C120.58024582 210.61244863 119.37239426 210.93600331 118.12794113 211.26936269 C116.50565598 211.68121816 116.50565598 211.68121816 114.85059738 212.10139394 C114.23609128 212.28051918 113.62158518 212.45964442 112.98845768 212.6441977 C110.40447185 213.19680097 108.01086292 213.23689522 105.36748886 213.24856496 C104.25302383 213.25572026 103.13855881 213.26287557 101.99032211 213.2702477 C100.77205231 213.2729366 99.5537825 213.27562551 98.29859543 213.27839589 C96.36874802 213.28825269 96.36874802 213.28825269 94.39991379 213.29830861 C90.13739382 213.31930382 85.87487368 213.32970569 81.61231613 213.33967519 C80.14269429 213.34372423 78.67307262 213.34784119 77.20345116 213.35202527 C70.29912782 213.37106577 63.39481511 213.38530004 56.49047059 213.39363724 C48.52929398 213.40341036 40.56839534 213.42973638 32.60731667 213.47013813 C26.44751493 213.50032264 20.28779279 213.51510825 14.12791854 213.51841825 C10.45165488 213.52076577 6.77568859 213.52968719 3.09950447 213.55487943 C-1.00358013 213.58254435 -5.10604507 213.57832194 -9.20921707 213.57136464 C-11.02751274 213.59057973 -11.02751274 213.59057973 -12.88254166 213.610183 C-19.5304694 213.56907428 -23.73307006 213.06743807 -29.14940262 209.10139394 C-30.1617598 210.07495839 -30.1617598 210.07495839 -31.19456863 211.06819081 C-34.87071791 213.59772656 -36.99471694 213.61697614 -41.42674637 213.63264394 C-42.11571503 213.63647084 -42.80468369 213.64029775 -43.51453018 213.64424062 C-44.96599674 213.64695212 -46.41751279 213.63964414 -47.86888504 213.62287831 C-50.07744504 213.60148555 -52.28274092 213.62268359 -54.49119949 213.64826894 C-55.90722223 213.64562488 -57.32324295 213.64049828 -58.73924637 213.63264394 C-60.65531693 213.62587636 -60.65531693 213.62587636 -62.61009598 213.61897206 C-67.32375734 212.92965965 -70.65747561 211.04703026 -73.57518387 207.24201894 C-75.76401821 202.575077 -76.94582028 198.27946634 -77.14940262 193.10139394 C-77.20934402 191.58352284 -77.20934402 191.58352284 -77.27049637 190.03498769 C-77.44420706 181.54360059 -77.44420706 181.54360059 -75.14940262 178.10139394 C-73.82940262 178.10139394 -72.50940262 178.10139394 -71.14940262 178.10139394 C-71.14940262 175.79139394 -71.14940262 173.48139394 -71.14940262 171.10139394 C-72.79940262 170.77139394 -74.44940262 170.44139394 -76.14940262 170.10139394 C-77.29484511 166.66506647 -77.38918282 163.84707439 -77.46190262 160.22639394 C-77.49928543 159.01209706 -77.53666824 157.79780019 -77.57518387 156.54670644 C-77.08156363 152.5524583 -75.90382615 150.95904045 -73.14940262 148.10139394 C-74.13940262 147.77139394 -75.12940262 147.44139394 -76.14940262 147.10139394 C-77.4679781 144.46424298 -77.26931966 142.50306754 -77.26292801 139.55012441 C-77.26285248 138.38907186 -77.26277695 137.2280193 -77.26269913 136.03178334 C-77.25753784 134.77342671 -77.25237656 133.51507009 -77.24705887 132.21858144 C-77.24564392 130.93404073 -77.24422897 129.64950002 -77.24277115 128.32603383 C-77.23895173 124.90982552 -77.22912635 121.49365968 -77.21806717 118.07746816 C-77.20784069 114.59195968 -77.20327087 111.10644434 -77.19823074 107.62092519 C-77.18750357 100.78106399 -77.17043404 93.941231 -77.14940262 87.10139394 C-77.80940262 87.10139394 -78.46940262 87.10139394 -79.14940262 87.10139394 C-79.43269084 83.39346584 -79.60210235 79.79935081 -79.14940262 76.10139394 C-76.69246009 73.83842055 -75.46977722 73.10139394 -72.14940262 73.10139394 C-71.81940262 71.12139394 -71.48940262 69.14139394 -71.14940262 67.10139394 C-73.12940262 67.59639394 -73.12940262 67.59639394 -75.14940262 68.10139394 C-77.54179111 64.5128112 -77.3605651 63.00412098 -77.27440262 58.75373769 C-77.25893387 57.50914784 -77.24346512 56.264558 -77.22752762 54.98225331 C-77.20174637 53.68094472 -77.17596512 52.37963613 -77.14940262 51.03889394 C-77.09855711 48.46484013 -77.05643194 45.89059439 -77.02440262 43.31623769 C-76.98959793 41.60101918 -76.98959793 41.60101918 -76.95409012 39.8511498 C-76.85792361 36.95605236 -76.85792361 36.95605236 -79.14940262 35.10139394 C-80.49352435 27.93119973 -81.05249718 17.98558661 -77.50096512 11.43733144 C-74.54789506 7.3645099 -71.43343683 3.78595535 -67.14940262 1.10139394 C-64.35586929 0.67057061 -64.35586929 0.67057061 -61.08372879 0.59310842 C-59.84810699 0.55807934 -58.6124852 0.52305026 -57.33942032 0.4869597 C-55.97791442 0.46401209 -54.61639748 0.44171232 -53.25487137 0.41999745 C-51.8212754 0.38726127 -50.38769693 0.35375103 -48.95413589 0.31951928 C-32.63892106 -0.04111721 -16.31825377 -0.0282457 0 0 Z M-42.42500114 9.31419492 C-43.95575365 9.34111131 -45.48663047 9.3618397 -47.01755714 9.37566876 C-49.03094799 9.39596909 -51.04400306 9.44413508 -53.05687332 9.4942162 C-54.66668831 9.52504041 -54.66668831 9.52504041 -56.30902481 9.55648732 C-60.58366868 10.37654785 -63.05234331 12.70790698 -65.69627762 16.06623769 C-69.69879564 22.62880782 -70.92734927 28.40104061 -70.14940262 36.10139394 C-69.63506668 37.25574941 -69.63506668 37.25574941 -69.11034012 38.43342519 C-67.84758928 41.93935536 -68.21550043 44.59401653 -68.58690262 48.28889394 C-69.63258582 58.42667138 -69.63258582 58.42667138 -67.14940262 68.10139394 C-66.48940262 68.10139394 -65.82940262 68.10139394 -65.14940262 68.10139394 C-63.892322 64.33015208 -63.93620913 60.75267936 -63.86815262 56.82014394 C-63.84974319 56.01025014 -63.83133377 55.20035634 -63.81236649 54.36592031 C-63.75364516 51.77781826 -63.70081222 49.18965094 -63.64940262 46.60139394 C-63.58174275 43.19500433 -63.50807735 39.78882402 -63.43065262 36.38264394 C-63.41707718 35.59820912 -63.40350174 34.81377431 -63.38951492 34.00556874 C-63.31611016 30.79645421 -63.17107497 28.166411 -62.14940262 25.10139394 C-61.15940262 24.77139394 -60.16940262 24.44139394 -59.14940262 24.10139394 C-58.81940262 24.76139394 -58.48940262 25.42139394 -58.14940262 26.10139394 C-57.98440262 25.35889394 -57.81940262 24.61639394 -57.64940262 23.85139394 C-55.06563101 19.11447931 -50.08965837 17.74814585 -45.14940262 16.10139394 C-43.02086435 16.00614527 -40.88944491 15.97066275 -38.75877762 15.96858144 C-37.49162918 15.96729238 -36.22448074 15.96600331 -34.91893387 15.96467519 C-34.25845047 15.96676991 -33.59796707 15.96886464 -32.91746902 15.97102284 C-30.92056742 15.97633761 -28.92364635 15.97056575 -26.92674637 15.96467519 C-25.65444168 15.96596425 -24.38213699 15.96725331 -23.07127762 15.96858144 C-21.33249344 15.97027333 -21.33249344 15.97027333 -19.55858231 15.97199941 C-16.14940262 16.10139394 -16.14940262 16.10139394 -12.48997879 16.66389394 C-9.4412432 17.06317291 -7.68094471 17.04186617 -4.77830887 16.23420644 C14.5743534 11.37049618 36.10725373 12.11863073 55.82715988 13.98030019 C58.80554465 14.20916774 58.80554465 14.20916774 61.51685715 13.61946034 C65.42948427 13.01143436 69.26544386 12.93928273 73.21387863 12.93342519 C74.00529755 12.93009679 74.79671646 12.92676839 75.61211777 12.92333913 C77.28039091 12.91829667 78.94867405 12.91592997 80.6169548 12.9160912 C83.14487803 12.91390966 85.67236084 12.8957391 88.20020676 12.87678456 C89.82976257 12.87384893 91.45932044 12.87186527 93.08887863 12.87092519 C93.83293457 12.86373967 94.57699051 12.85655416 95.3435936 12.8491509 C101.82709894 12.87682779 108.35385799 13.31025481 113.72559738 17.16389394 C118.75991241 24.12309412 120.0096705 32.66576541 119.91309738 41.10920644 C119.90536301 42.26291738 119.89762863 43.41662831 119.88965988 44.60530019 C119.86420809 46.96468163 119.83819441 49.32405709 119.81153488 51.68342519 C119.76608484 58.56910674 119.94473594 65.37810878 120.34278488 72.24983144 C121.00936299 84.12214357 121.0013784 95.98878612 120.98096848 107.87678456 C120.9755654 111.62356973 120.98097062 115.37023718 120.98731613 119.11701894 C120.9866559 121.5388942 120.98537589 123.96076939 120.98340988 126.38264394 C120.98543411 127.48289907 120.98745834 128.58315419 120.98954391 129.71675038 C120.92682789 150.72120705 120.92682789 150.72120705 116.85059738 157.10139394 C117.32497238 157.55514394 117.79934738 158.00889394 118.28809738 158.47639394 C122.18424749 162.52839005 121.07457313 167.99621092 121.10059738 173.28889394 C121.13153488 174.83286855 121.13153488 174.83286855 121.16309738 176.40803456 C121.19387843 182.41418646 120.90167746 186.86394081 117.85059738 192.10139394 C112.89545928 196.68078697 106.23833602 197.25895774 99.78809738 197.41389394 C98.25475754 197.46996816 98.25475754 197.46996816 96.69044113 197.52717519 C93.15572299 196.99721057 92.1927617 195.69758909 89.85059738 193.10139394 C87.18224772 192.76641093 87.18224772 192.76641093 84.85059738 193.10139394 C83.91636094 196.11171137 83.80609827 196.96789661 84.85059738 200.10139394 C82.26438906 199.67737606 79.6824952 199.23782254 77.10059738 198.78889394 C76.37098801 198.67094472 75.64137863 198.5529955 74.88965988 198.43147206 C70.81949843 197.70994344 67.96250804 197.02495211 64.85059738 194.10139394 C64.19059738 195.09139394 63.53059738 196.08139394 62.85059738 197.10139394 C60.66115952 197.6084435 60.66115952 197.6084435 57.9582634 197.78059316 C56.9674678 197.84486501 55.97667221 197.90913686 54.95585251 197.97535634 C50.01080492 198.17606832 45.07681219 198.24413704 40.12794113 198.23420644 C39.0606427 198.23516316 37.99334427 198.23611989 36.89370346 198.23710561 C34.66099106 198.2377808 32.42827662 198.23597311 30.19556808 198.23176503 C26.76608077 198.22635923 23.33672157 198.23175681 19.90723801 198.23811269 C17.73080543 198.23745272 15.55437292 198.23617326 13.37794113 198.23420644 C12.35095612 198.23623067 11.3239711 198.2382549 10.26586533 198.24034047 C9.32050415 198.23718831 8.37514297 198.23403615 7.40113449 198.23078847 C6.56827423 198.22999288 5.73541397 198.22919728 4.87731552 198.22837758 C2.85059738 198.10139394 2.85059738 198.10139394 0.85059738 197.10139394 C0.22559738 195.03889394 0.22559738 195.03889394 -0.14940262 193.10139394 C-1.79940262 193.10139394 -3.44940262 193.10139394 -5.14940262 193.10139394 C-5.47940262 194.42139394 -5.80940262 195.74139394 -6.14940262 197.10139394 C-12.41940262 197.43139394 -18.68940262 197.76139394 -25.14940262 198.10139394 C-17.60094501 205.64985155 -4.67374909 204.21082209 5.36349106 204.24034047 C6.47943146 204.23831624 7.59537186 204.23629201 8.74512863 204.23420644 C9.93555267 204.23516316 11.12597672 204.23611989 12.35247421 204.23710561 C14.85420917 204.23778167 17.35594594 204.23596772 19.85767746 204.23176503 C23.64246785 204.22642306 27.42713881 204.23172237 31.21192551 204.23811269 C41.92682565 204.2409831 52.56420955 204.20585514 63.2473259 203.33772206 C67.69120616 203.04626085 72.12108621 202.97730786 76.57325363 202.92561269 C77.41699036 202.91368886 78.26072708 202.90176503 79.13003159 202.88947988 C82.59622679 202.84082431 86.06206559 202.79326309 89.5285759 202.7754662 C107.39176685 203.14034434 107.39176685 203.14034434 123.15162277 196.12751698 C130.66724936 187.16470838 127.79469352 170.81928094 127.41309738 159.91389394 C126.4432295 130.66751308 126.4432295 130.66751308 127.39747238 118.80842519 C127.98119693 110.86501043 127.70421361 103.07635615 127.23633957 95.13825917 C127.09975502 92.77431472 126.98621126 90.4099678 126.87403488 88.04475331 C126.4018852 78.65658112 126.4018852 78.65658112 124.14747238 69.55842519 C122.67660654 65.34033707 123.07566338 62.84833846 124.28663254 58.61506581 C125.47901212 53.30045969 125.09387539 47.77066826 125.03809738 42.35139394 C125.03745285 41.1461205 125.03680832 39.94084706 125.03614426 38.69905019 C125.01111381 33.68739851 124.98219211 29.00252543 123.85059738 24.10139394 C123.19059738 24.10139394 122.53059738 24.10139394 121.85059738 24.10139394 C121.72684738 23.33826894 121.60309738 22.57514394 121.47559738 21.78889394 C120.96956946 18.89872258 120.96956946 18.89872258 118.85059738 16.10139394 C116.29876334 14.8968909 116.29876334 14.8968909 113.85059738 14.10139394 C113.85059738 11.10139394 113.85059738 11.10139394 114.85059738 9.10139394 C97.62703474 9.07776652 80.40347734 9.06027129 63.17990208 9.04958177 C55.17811975 9.04448091 47.17634778 9.03752109 39.17457199 9.02595448 C-1.62714176 8.89643694 -1.62714176 8.89643694 -42.42500114 9.31419492 Z M68.08106613 27.08967519 C66.18358983 30.19189834 66.80399307 32.73049663 67.16309738 36.28889394 C67.28298019 37.56119863 67.40286301 38.83350331 67.52637863 40.14436269 C67.63337082 41.120183 67.74036301 42.09600331 67.85059738 43.10139394 C64.22059738 43.76139394 60.59059738 44.42139394 56.85059738 45.10139394 C56.85059738 46.09139394 56.85059738 47.08139394 56.85059738 48.10139394 C57.53766769 48.164558 58.22473801 48.22772206 58.93262863 48.29280019 C66.20461112 49.28112399 66.20461112 49.28112399 68.18262863 51.79280019 C68.97559738 53.72639394 68.97559738 53.72639394 69.85059738 57.10139394 C72.00913978 54.94285154 73.30559651 52.72117802 74.85059738 50.10139394 C76.56927081 48.38272051 78.94272957 48.77218795 81.28809738 48.60139394 C85.21494653 48.38720211 85.21494653 48.38720211 88.85059738 47.10139394 C88.35559738 45.61639394 88.35559738 45.61639394 87.85059738 44.10139394 C85.01790072 42.68504561 82.375933 42.75509344 79.22559738 42.53889394 C76.06997238 42.32233144 76.06997238 42.32233144 72.85059738 42.10139394 C73.18059738 37.15139394 73.51059738 32.20139394 73.85059738 27.10139394 C70.1228383 25.68439044 70.1228383 25.68439044 68.08106613 27.08967519 Z M-17.14940262 28.10139394 C-19.4632243 31.57212646 -19.25302286 32.22295022 -18.64940262 36.16389394 C-18.24315262 38.82405019 -18.24315262 38.82405019 -18.14940262 41.10139394 C-20.93873696 43.89072828 -23.7150818 43.5924448 -27.46190262 43.78889394 C-28.77803543 43.87526113 -30.09416824 43.96162831 -31.45018387 44.05061269 C-34.58811284 44.0936888 -37.12990385 43.87817022 -40.14940262 43.10139394 C-40.80940262 44.42139394 -41.46940262 45.74139394 -42.14940262 47.10139394 C-38.68270026 49.41252884 -37.29285384 49.34438277 -33.21190262 49.28889394 C-32.17162918 49.28244863 -31.13135574 49.27600331 -30.05955887 49.26936269 C-27.56327987 49.12528215 -25.55089364 48.70419735 -23.14940262 48.10139394 C-21.50354404 48.08266059 -19.85683517 48.10559895 -18.21190262 48.16389394 C-14.39164846 48.21468018 -11.58932922 47.93602146 -8.14940262 46.10139394 C-9.43002747 44.39389414 -10.76707819 42.72765798 -12.14940262 41.10139394 C-12.80940262 41.10139394 -13.46940262 41.10139394 -14.14940262 41.10139394 C-13.99342606 40.49811269 -13.83744949 39.89483144 -13.67674637 39.27326894 C-13.48209793 38.47405019 -13.28744949 37.67483144 -13.08690262 36.85139394 C-12.88967606 36.06248769 -12.69244949 35.27358144 -12.48924637 34.46076894 C-12.13442994 31.99744572 -12.38062718 30.44535262 -13.14940262 28.10139394 C-14.46940262 28.10139394 -15.78940262 28.10139394 -17.14940262 28.10139394 Z M0.85059738 41.10139394 C-0.13940262 42.58639394 -0.13940262 42.58639394 -1.14940262 44.10139394 C0.83059738 45.09139394 2.81059738 46.08139394 4.85059738 47.10139394 C4.34757149 51.50287051 2.82613937 53.85534813 -0.14940262 57.10139394 C-0.80940262 57.43139394 -1.46940262 57.76139394 -2.14940262 58.10139394 C-2.14940262 58.76139394 -2.14940262 59.42139394 -2.14940262 60.10139394 C-2.85065262 60.20451894 -3.55190262 60.30764394 -4.27440262 60.41389394 C-7.21025559 60.98064488 -7.21025559 60.98064488 -9.80565262 62.57014394 C-13.76473593 64.38318209 -17.23232653 64.86589548 -21.52440262 65.28889394 C-22.62848465 65.41167714 -22.62848465 65.41167714 -23.75487137 65.53694081 C-25.55194887 65.7353195 -27.35055155 65.91979971 -29.14940262 66.10139394 C-29.14940262 66.76139394 -29.14940262 67.42139394 -29.14940262 68.10139394 C-18.61375294 69.60648675 -9.88677047 68.7278159 -0.14940262 64.10139394 C2.62129482 61.91407472 2.62129482 61.91407472 4.85059738 59.10139394 C6.95174717 57.08090249 9.06456105 55.07310136 11.17872238 53.06623769 C12.9484448 50.98640037 13.54446381 49.79099601 13.85059738 47.10139394 C13.20396171 44.40099004 13.20396171 44.40099004 11.85059738 42.10139394 C7.89400473 40.78252972 5.02720311 40.83621262 0.85059738 41.10139394 Z M35.85059738 48.10139394 C33.08848657 56.17109024 34.35134292 65.73227314 37.87794113 73.30842519 C39.89827029 75.53306894 39.89827029 75.53306894 43.83497238 75.23811269 C45.42533387 75.10912852 47.01405559 74.95851617 48.60059738 74.78889394 C54.2011385 74.26097408 59.28500293 73.88124439 64.85059738 75.10139394 C66.85059738 77.10139394 66.85059738 77.10139394 66.95411301 79.10090566 C66.88901535 79.90286366 66.82391769 80.70482167 66.75684738 81.53108144 C66.66596848 82.84785878 66.66596848 82.84785878 66.57325363 84.19123769 C66.42543672 86.04024574 66.27700443 87.8892047 66.12794113 89.73811269 C66.03706223 91.05875722 66.03706223 91.05875722 65.94434738 92.40608144 C65.87924973 93.21029531 65.81415207 94.01450917 65.74708176 94.84309316 C65.86428972 97.40010658 66.56178542 98.91479305 67.85059738 101.10139394 C70.32559738 100.60639394 70.32559738 100.60639394 72.85059738 100.10139394 C72.82965012 99.45065907 72.80870285 98.79992421 72.78712082 98.12947011 C72.704004 95.18276838 72.65195254 92.23631303 72.60059738 89.28889394 C72.56708176 88.26473378 72.53356613 87.24057363 72.49903488 86.18537831 C72.48614426 85.20246816 72.47325363 84.219558 72.45997238 83.20686269 C72.43902512 82.30089345 72.41807785 81.39492421 72.39649582 80.46150136 C72.85059738 78.10139394 72.85059738 78.10139394 74.65382004 76.29621816 C77.86727302 74.54842544 80.92879886 74.87029466 84.47559738 75.03889394 C91.39497549 75.21419743 98.51434925 75.26951801 104.85059738 72.10139394 C106.0416407 68.52826399 106.05588561 65.55586072 106.10059738 61.78889394 C106.12637863 60.49338613 106.15215988 59.19787831 106.17872238 57.86311269 C105.75964192 53.05865456 104.39833438 49.70250117 101.03809738 46.22639394 C98.1985791 44.76607025 95.99764597 44.88682244 92.85059738 45.10139394 C92.85059738 45.76139394 92.85059738 46.42139394 92.85059738 47.10139394 C93.65497238 47.88514394 94.45934738 48.66889394 95.28809738 49.47639394 C99.21793316 53.50207937 98.96555148 56.72471198 99.08106613 62.10139394 C98.79571945 64.57762274 98.30420982 66.06456921 96.85059738 68.10139394 C91.6084077 69.65707973 86.14018062 69.18335415 80.85059738 68.10139394 C79.77809738 68.12201894 78.70559738 68.14264394 77.60059738 68.16389394 C74.85059738 68.10139394 74.85059738 68.10139394 72.85059738 66.10139394 C72.13651404 64.11782911 71.46441996 62.11823956 70.85059738 60.10139394 C67.60326807 61.7250586 67.14904602 64.85527233 65.85059738 68.10139394 C46.57596317 70.15344625 46.57596317 70.15344625 42.28809738 67.53889394 C39.32619699 62.5165411 39.63391969 57.64403674 40.85059738 52.10139394 C41.48868332 51.99182363 42.12676926 51.88225331 42.78419113 51.76936269 C43.61048019 51.610808 44.43676926 51.45225331 45.28809738 51.28889394 C46.52366379 51.06266347 46.52366379 51.06266347 47.78419113 50.83186269 C48.80706223 50.47028066 48.80706223 50.47028066 49.85059738 50.10139394 C50.18059738 49.11139394 50.51059738 48.12139394 50.85059738 47.10139394 C45.06900072 44.95010216 40.59477423 43.35721709 35.85059738 48.10139394 Z M-45.14940262 68.10139394 C-46.02981759 70.03336894 -46.02981759 70.03336894 -46.33690262 72.28889394 C-46.47998856 73.09197988 -46.62307449 73.89506581 -46.77049637 74.72248769 C-46.89553543 75.50752675 -47.02057449 76.29256581 -47.14940262 77.10139394 C-47.39690262 78.33889394 -47.64440262 79.57639394 -47.89940262 80.85139394 C-48.16304873 84.27879341 -47.70688937 86.0780373 -46.14940262 89.10139394 C-45.48940262 89.10139394 -44.82940262 89.10139394 -44.14940262 89.10139394 C-44.14940262 88.44139394 -44.14940262 87.78139394 -44.14940262 87.10139394 C-40.84940262 86.44139394 -37.54940262 85.78139394 -34.14940262 85.10139394 C-34.14940262 84.44139394 -34.14940262 83.78139394 -34.14940262 83.10139394 C-35.28377762 82.73014394 -36.41815262 82.35889394 -37.58690262 81.97639394 C-39.52049637 81.15217519 -39.52049637 81.15217519 -41.14940262 80.10139394 C-42.38369031 76.47567386 -42.39975505 73.71352318 -41.14940262 70.10139394 C-38.83940262 69.44139394 -36.52940262 68.78139394 -34.14940262 68.10139394 C-34.14940262 67.44139394 -34.14940262 66.78139394 -34.14940262 66.10139394 C-39.98042178 65.806871 -39.98042178 65.806871 -45.14940262 68.10139394 Z M-69.14940262 78.10139394 C-69.17494755 85.14484301 -69.19235065 92.18827995 -69.20433426 99.23176503 C-69.20933492 101.62337114 -69.2161376 104.01497423 -69.22484207 106.40656972 C-69.23709588 109.86214373 -69.24267376 113.31767701 -69.24705887 116.77326894 C-69.25222015 117.82689626 -69.25738144 118.88052358 -69.26269913 119.966079 C-69.26292474 123.01324828 -69.21938791 126.05506165 -69.14940262 129.10139394 C-69.1317485 130.20052114 -69.11409439 131.29964833 -69.0959053 132.43208241 C-69.04967026 133.5053478 -69.00343521 134.57861318 -68.9557991 135.68440175 C-68.92187561 136.652105 -68.88795212 137.61980824 -68.85300064 138.61683583 C-68.35574379 141.35389406 -68.35574379 141.35389406 -65.59900284 142.93995595 C-64.79063477 143.32323049 -63.98226669 143.70650502 -63.14940262 144.10139394 C-63.12388569 136.34586729 -63.10646609 128.59035162 -63.09447098 120.83479238 C-63.08946622 118.20067368 -63.08266039 115.56655772 -63.07396317 112.93244863 C-63.06172771 109.12938181 -63.05613557 105.32635197 -63.05174637 101.52326894 C-63.04658508 100.36027272 -63.0414238 99.19727651 -63.03610611 97.99903798 C-63.03561062 90.65008877 -63.4181379 83.41393749 -64.14940262 76.10139394 C-65.9898665 76.10139394 -67.54569855 77.27367571 -69.14940262 78.10139394 Z M-28.14940262 85.10139394 C-27.86558104 87.84500256 -27.41848227 88.8771609 -25.27440262 90.66389394 C-21.57680072 92.36479081 -17.89898247 93.35050338 -13.95799637 94.33967519 C-11.51142229 95.00321058 -9.30182999 95.83226336 -6.96190262 96.78889394 C1.83475978 99.80579981 13.14316792 99.00387043 21.85059738 96.10139394 C22.44129752 94.1553612 22.44129752 94.1553612 22.85059738 92.10139394 C22.35559738 91.60639394 22.35559738 91.60639394 21.85059738 91.10139394 C19.85601505 91.20581118 17.86153202 91.31846053 15.87012863 91.47199941 C2.38949293 92.49872224 -10.83128612 92.66806315 -23.04784012 86.12483144 C-25.209345 84.88247849 -25.209345 84.88247849 -28.14940262 85.10139394 Z M8.85059738 109.10139394 C6.54885149 111.06258877 6.54885149 111.06258877 5.97559738 114.53889394 C4.73619564 118.4636661 4.24320318 119.06003113 0.85059738 121.10139394 C-1.91112137 121.98030019 -1.91112137 121.98030019 -4.83690262 122.66389394 C-7.70681993 123.2975845 -7.70681993 123.2975845 -10.14940262 124.10139394 C-10.47940262 124.76139394 -10.80940262 125.42139394 -11.14940262 126.10139394 C-8.67440262 127.09139394 -8.67440262 127.09139394 -6.14940262 128.10139394 C-6.39549637 129.96076894 -6.39549637 129.96076894 -7.14940262 132.10139394 C-8.99705887 133.36701894 -8.99705887 133.36701894 -11.21190262 134.35139394 C-11.94537918 134.68655019 -12.67885574 135.02170644 -13.43455887 135.36701894 C-14.28340652 135.73053456 -14.28340652 135.73053456 -15.14940262 136.10139394 C-15.14940262 137.09139394 -15.14940262 138.08139394 -15.14940262 139.10139394 C-13.93317215 138.958308 -13.93317215 138.958308 -12.69237137 138.81233144 C2.3328245 137.3080627 2.3328245 137.3080627 8.85059738 140.10139394 C12.77386349 144.43583204 12.23275024 149.34227165 12.10059738 154.85139394 C12.09544113 155.72666738 12.09028488 156.60194081 12.08497238 157.50373769 C12.00505676 163.94693456 12.00505676 163.94693456 10.85059738 165.10139394 C8.70830355 165.3307168 6.55919595 165.49693949 4.40919113 165.63655019 C2.45142746 165.76706777 2.45142746 165.76706777 0.45411301 165.90022206 C-0.93455259 165.98821185 -2.32322455 166.07610116 -3.71190262 166.16389394 C-5.10450855 166.25526804 -6.49708716 166.34705947 -7.88963699 166.43928456 C-11.3093114 166.66410745 -14.72921041 166.88461453 -18.14940262 167.10139394 C-17.65141892 163.36651616 -17.27448505 161.28901759 -15.14940262 158.10139394 C-15.80940262 157.11139394 -16.46940262 156.12139394 -17.14940262 155.10139394 C-16.84754835 152.1432221 -16.48221433 149.76701736 -15.14940262 147.10139394 C-16.32334718 144.42257827 -16.32334718 144.42257827 -18.14940262 142.10139394 C-19.13940262 142.10139394 -20.12940262 142.10139394 -21.14940262 142.10139394 C-21.48911027 144.60067163 -21.82128294 147.10058989 -22.14940262 149.60139394 C-22.24479324 150.29748769 -22.34018387 150.99358144 -22.43846512 151.71076894 C-23.74347807 160.08398655 -23.74347807 160.08398655 -22.27440262 168.19514394 C-21.90315262 168.65920644 -21.53190262 169.12326894 -21.14940262 169.60139394 C-20.48940262 170.42639394 -19.82940262 171.25139394 -19.14940262 172.10139394 C-17.29315262 171.85389394 -17.29315262 171.85389394 -15.39940262 171.60139394 C-11.64962428 171.20213696 -7.97366983 171.08498476 -4.20799637 171.14045644 C-2.88590164 171.15882558 -2.88590164 171.15882558 -1.53709793 171.17756581 C0.24379298 171.20976999 2.02450195 171.25505435 3.80469894 171.31428456 C8.61091072 171.39948138 12.05756126 171.43042758 15.85059738 168.10139394 C17.11048185 166.05055272 17.11048185 166.05055272 17.72559738 163.72639394 C17.97051926 162.97615956 18.21544113 162.22592519 18.46778488 161.45295644 C18.91519296 158.70459255 18.47541265 156.80340965 17.85059738 154.10139394 C17.73193306 152.28978534 17.62811727 150.4771516 17.53809738 148.66389394 C17.02183491 142.48539789 15.22762744 139.47842399 10.85059738 135.10139394 C7.96342133 134.41763263 7.96342133 134.41763263 4.72559738 133.97639394 C3.62989426 133.80881581 2.53419113 133.64123769 1.40528488 133.46858144 C0.56223801 133.34740956 -0.28080887 133.22623769 -1.14940262 133.10139394 C-1.14940262 131.45139394 -1.14940262 129.80139394 -1.14940262 128.10139394 C3.61745313 126.87912323 6.9538072 127.44938676 11.59278488 128.62092519 C14.75019764 129.29283136 17.63373029 129.2382819 20.85059738 129.10139394 C20.85059738 127.78139394 20.85059738 126.46139394 20.85059738 125.10139394 C18.82696714 123.0777637 14.94670681 123.29377819 12.19825363 122.89436269 C9.85059738 122.10139394 9.85059738 122.10139394 8.53419113 120.02717519 C8.19581223 119.07391347 8.19581223 119.07391347 7.85059738 118.10139394 C8.84059738 117.77139394 9.83059738 117.44139394 10.85059738 117.10139394 C11.62015874 114.75605443 11.62015874 114.75605443 11.85059738 112.10139394 C10.51681164 110.26591404 10.51681164 110.26591404 8.85059738 109.10139394 Z M44.85059738 111.10139394 C44.52059738 112.42139394 44.19059738 113.74139394 43.85059738 115.10139394 C44.84059738 115.10139394 45.83059738 115.10139394 46.85059738 115.10139394 C46.85059738 117.74139394 46.85059738 120.38139394 46.85059738 123.10139394 C48.83059738 123.10139394 50.81059738 123.10139394 52.85059738 123.10139394 C53.18059738 124.42139394 53.51059738 125.74139394 53.85059738 127.10139394 C50.55059738 127.10139394 47.25059738 127.10139394 43.85059738 127.10139394 C43.52059738 128.09139394 43.19059738 129.08139394 42.85059738 130.10139394 C45.86091482 131.03563038 46.71710006 131.14589305 49.85059738 130.10139394 C48.64240372 133.72597493 48.04717825 133.50310351 44.85059738 135.10139394 C44.52059738 136.09139394 44.19059738 137.08139394 43.85059738 138.10139394 C46.03643622 139.14237175 46.03643622 139.14237175 48.85059738 139.10139394 C51.206349 137.40768024 53.13041444 135.43635016 54.85059738 133.10139394 C54.85059738 132.44139394 54.85059738 131.78139394 54.85059738 131.10139394 C58.48059738 130.77139394 62.11059738 130.44139394 65.85059738 130.10139394 C65.52059738 129.11139394 65.19059738 128.12139394 64.85059738 127.10139394 C62.54059738 127.43139394 60.23059738 127.76139394 57.85059738 128.10139394 C57.85059738 126.12139394 57.85059738 124.14139394 57.85059738 122.10139394 C60.16059738 122.43139394 62.47059738 122.76139394 64.85059738 123.10139394 C65.18059738 121.78139394 65.51059738 120.46139394 65.85059738 119.10139394 C64.10081581 118.93244951 62.35076126 118.76633085 60.60059738 118.60139394 C59.62606613 118.50858144 58.65153488 118.41576894 57.64747238 118.32014394 C55.38757585 118.14339225 53.11739545 118.10139394 50.85059738 118.10139394 C50.85059738 116.78139394 50.85059738 115.46139394 50.85059738 114.10139394 C51.83801926 114.185183 52.82544113 114.26897206 53.84278488 114.35530019 C55.12411301 114.45713613 56.40544113 114.55897206 57.72559738 114.66389394 C59.00176926 114.768308 60.27794113 114.87272206 61.59278488 114.98030019 C64.7370368 115.35822761 64.7370368 115.35822761 66.85059738 114.10139394 C66.52059738 112.78139394 66.19059738 111.46139394 65.85059738 110.10139394 C58.75625506 110.00406302 51.86865595 110.00052201 44.85059738 111.10139394 Z M85.85059738 110.10139394 C84.86059738 111.58639394 84.86059738 111.58639394 83.85059738 113.10139394 C85.05715988 113.47264394 85.05715988 113.47264394 86.28809738 113.85139394 C88.85059738 115.10139394 88.85059738 115.10139394 89.66309738 117.22639394 C89.72497238 117.84514394 89.78684738 118.46389394 89.85059738 119.10139394 C89.19059738 119.10139394 88.53059738 119.10139394 87.85059738 119.10139394 C88.70982659 122.61642253 89.28027508 124.62612536 92.10059738 126.97639394 C95.25253726 128.26582389 97.47446026 128.40149502 100.85059738 128.10139394 C101.51059738 127.77139394 102.17059738 127.44139394 102.85059738 127.10139394 C102.52059738 125.45139394 102.19059738 123.80139394 101.85059738 122.10139394 C100.17997238 122.37983144 100.17997238 122.37983144 98.47559738 122.66389394 C94.85059738 123.10139394 94.85059738 123.10139394 92.85059738 122.10139394 C92.85059738 120.78139394 92.85059738 119.46139394 92.85059738 118.10139394 C93.84059738 117.44139394 94.83059738 116.78139394 95.85059738 116.10139394 C95.65588628 114.15140265 95.65588628 114.15140265 94.85059738 112.10139394 C91.94449474 110.02560634 89.36900735 109.63844526 85.85059738 110.10139394 Z M-18.14940262 112.10139394 C-18.10984364 114.02448816 -18.10984364 114.02448816 -17.14940262 116.10139394 C-14.39940262 118.10139394 -14.39940262 118.10139394 -11.14940262 119.10139394 C-8.79479584 118.42715227 -8.79479584 118.42715227 -7.14940262 117.10139394 C-11.79824119 111.61123044 -11.79824119 111.61123044 -18.14940262 112.10139394 Z M76.85059738 111.10139394 C75.48452723 112.25053363 75.48452723 112.25053363 75.60059738 115.35139394 C74.70798722 119.81444477 73.12139685 121.08219443 69.85059738 124.10139394 C69.85059738 125.09139394 69.85059738 126.08139394 69.85059738 127.10139394 C70.84059738 127.43139394 71.83059738 127.76139394 72.85059738 128.10139394 C76.97841612 124.67618265 79.165918 122.67681011 79.72559738 117.22639394 C79.79361464 115.85244534 79.84448353 114.47701152 79.85059738 113.10139394 C78.86059738 112.44139394 77.87059738 111.78139394 76.85059738 111.10139394 Z M-45.14940262 115.10139394 C-45.47940262 116.75139394 -45.80940262 118.40139394 -46.14940262 120.10139394 C-44.36200642 121.44044661 -42.56935309 122.77248459 -40.77440262 124.10139394 C-39.77666824 124.84389394 -38.77893387 125.58639394 -37.75096512 126.35139394 C-35.39538544 128.28744244 -35.39538544 128.28744244 -33.14940262 128.10139394 C-33.46611543 122.87563261 -36.36005869 119.46466331 -40.14940262 116.10139394 C-42.85748413 115.06886458 -42.85748413 115.06886458 -45.14940262 115.10139394 Z M35.85059738 117.10139394 C35.43414057 120.06121198 35.19990158 122.81686121 35.10059738 125.78889394 C35.05805832 126.57973378 35.01551926 127.37057363 34.97169113 128.18537831 C34.75976301 132.93806261 34.86455752 137.41770457 35.85059738 142.10139394 C39.76605325 146.01684981 47.46066236 144.87726885 52.85059738 145.10139394 C53.79161301 145.143933 54.73262863 145.18647206 55.70215988 145.23030019 C59.70839613 145.33079106 62.37161027 145.05302085 65.85059738 143.10139394 C65.52059738 142.11139394 65.19059738 141.12139394 64.85059738 140.10139394 C56.93059738 140.10139394 49.01059738 140.10139394 40.85059738 140.10139394 C40.12472204 136.47201725 39.72979879 133.82517611 39.75294113 130.23811269 C39.75616379 129.35188222 39.75938644 128.46565175 39.76270676 127.55256581 C39.77108566 126.64055409 39.77946457 125.72854238 39.78809738 124.78889394 C39.7926091 123.85754628 39.79712082 122.92619863 39.80176926 121.96662831 C39.81350504 119.67815021 39.82992375 117.38980586 39.85059738 115.10139394 C38.38834722 115.00894391 38.38834722 115.00894391 35.85059738 117.10139394 Z M-27.14940262 126.10139394 C-27.14940262 127.09139394 -27.14940262 128.08139394 -27.14940262 129.10139394 C-25.37932548 129.182535 -23.60818164 129.24064898 -21.83690262 129.28889394 C-20.85076981 129.32369863 -19.86463699 129.35850331 -18.84862137 129.39436269 C-16.10365872 129.34417502 -16.10365872 129.34417502 -14.29393387 127.58967519 C-13.91623856 127.09854238 -13.53854324 126.60740956 -13.14940262 126.10139394 C-14.60713792 125.76545494 -16.06561368 125.4327277 -17.52440262 125.10139394 C-18.33651199 124.91576894 -19.14862137 124.73014394 -19.98534012 124.53889394 C-23.56334681 123.8155424 -23.90175269 123.93629399 -27.14940262 126.10139394 Z M78.85059738 128.10139394 C78.85059738 128.76139394 78.85059738 129.42139394 78.85059738 130.10139394 C80.27372238 130.07045644 80.27372238 130.07045644 81.72559738 130.03889394 C84.85059738 130.10139394 84.85059738 130.10139394 86.85059738 131.10139394 C86.52059738 132.42139394 86.19059738 133.74139394 85.85059738 135.10139394 C84.94309738 134.77139394 84.03559738 134.44139394 83.10059738 134.10139394 C79.78013931 132.90533671 79.78013931 132.90533671 75.85059738 133.10139394 C76.18059738 134.09139394 76.51059738 135.08139394 76.85059738 136.10139394 C79.82059738 136.59639394 79.82059738 136.59639394 82.85059738 137.10139394 C81.85059738 139.10139394 81.85059738 139.10139394 79.66309738 139.85139394 C76.26620309 140.1533401 73.99472747 139.34442211 70.85059738 138.10139394 C70.52059738 138.76139394 70.19059738 139.42139394 69.85059738 140.10139394 C71.32468891 142.32984741 71.32468891 142.32984741 73.85059738 144.10139394 C77.88469787 143.97332726 80.63174233 143.7694005 84.16700363 141.83186269 C87.52378488 140.91815367 89.04957956 141.82439961 92.02247238 143.46272206 C92.62575363 143.81785878 93.22903488 144.1729955 93.85059738 144.53889394 C98.49006174 147.3523775 98.49006174 147.3523775 103.78809738 147.82405019 C104.46872238 147.58557363 105.14934738 147.34709706 105.85059738 147.10139394 C105.85059738 145.78139394 105.85059738 144.46139394 105.85059738 143.10139394 C105.10294113 142.90803456 104.35528488 142.71467519 103.58497238 142.51545644 C102.60012863 142.25506581 101.61528488 141.99467519 100.60059738 141.72639394 C99.62606613 141.47115956 98.65153488 141.21592519 97.64747238 140.95295644 C95.19222435 140.20540885 93.09442333 139.33015577 90.85059738 138.10139394 C91.51059738 135.79139394 92.17059738 133.48139394 92.85059738 131.10139394 C91.90184738 130.27639394 90.95309738 129.45139394 89.97559738 128.60139394 C89.44192551 128.13733144 88.90825363 127.67326894 88.35840988 127.19514394 C85.24631913 124.93766878 82.17545263 126.94492255 78.85059738 128.10139394 Z M57.85059738 133.10139394 C58.18059738 134.42139394 58.51059738 135.74139394 58.85059738 137.10139394 C60.74238942 137.78287623 60.74238942 137.78287623 62.85059738 138.10139394 C63.51059738 137.44139394 64.17059738 136.78139394 64.85059738 136.10139394 C63.60175468 134.51806864 63.60175468 134.51806864 61.85059738 133.10139394 C60.53059738 133.10139394 59.21059738 133.10139394 57.85059738 133.10139394 Z M-46.14940262 142.10139394 C-45.81940262 143.75139394 -45.48940262 145.40139394 -45.14940262 147.10139394 C-43.26221512 147.25608144 -43.26221512 147.25608144 -41.33690262 147.41389394 C-38.78416123 147.74371716 -37.35138256 147.97515647 -35.14940262 149.35139394 C-33.63541799 152.00086704 -33.36376572 153.10168941 -34.14940262 156.10139394 C-36.07648576 157.49763705 -38.09891359 158.61649307 -40.16893387 159.78889394 C-43.11395364 161.74062302 -44.06784771 163.78913203 -45.14940262 167.10139394 C-45.5536116 170.46980213 -45.508878 172.36247232 -44.02440262 175.41389394 C-40.50500059 178.58135576 -36.27618449 178.13244071 -31.77440262 178.10139394 C-25.47905398 178.05935488 -20.37425101 178.4635673 -14.64940262 181.10139394 C-4.75464978 185.28763552 8.43327178 185.00902522 18.85059738 183.10139394 C21.10273396 182.1383864 21.10273396 182.1383864 22.85059738 181.10139394 C22.52059738 179.45139394 22.19059738 177.80139394 21.85059738 176.10139394 C20.73684738 176.24576894 19.62309738 176.39014394 18.47559738 176.53889394 C17.73954269 176.62783925 17.00348801 176.71678456 16.24512863 176.80842519 C14.67824509 177.00013198 13.11294008 177.20534225 11.54981613 177.42561269 C0.8169699 178.77819724 -8.98637369 177.3036748 -19.31859207 174.48030019 C-24.33406893 173.16220431 -28.85326603 172.76608451 -34.01268387 173.05842519 C-36.14940262 173.10139394 -36.14940262 173.10139394 -39.14940262 172.10139394 C-39.64940262 168.91389394 -39.64940262 168.91389394 -39.14940262 165.10139394 C-37.23932142 163.49657686 -35.32959163 162.44109283 -33.09471512 161.33967519 C-30.70761329 159.82017462 -30.05720589 158.76716545 -29.14940262 156.10139394 C-28.85232978 151.34822851 -29.18464939 147.33748402 -32.14940262 143.53889394 C-36.34723408 141.52743303 -41.77723061 139.91530793 -46.14940262 142.10139394 Z M-11.14940262 146.10139394 C-11.47940262 146.76139394 -11.80940262 147.42139394 -12.14940262 148.10139394 C-9.37888081 149.02490121 -7.58251504 149.26468979 -4.71190262 149.28889394 C-3.56914871 149.31016347 -3.56914871 149.31016347 -2.40330887 149.33186269 C0.08407053 149.0775206 1.69867844 148.3415659 3.85059738 147.10139394 C3.52059738 146.44139394 3.19059738 145.78139394 2.85059738 145.10139394 C-2.01526706 143.85476751 -6.71380039 143.46775512 -11.14940262 146.10139394 Z M-66.14940262 147.10139394 C-68.68169769 149.63368901 -68.57884339 150.95967062 -68.89940262 154.47639394 C-68.99737137 155.43287831 -69.09534012 156.38936269 -69.19627762 157.37483144 C-69.14636878 160.27786227 -68.81154459 161.73769853 -67.14940262 164.10139394 C-66.15940262 164.43139394 -65.16940262 164.76139394 -64.14940262 165.10139394 C-62.70551691 163.88710406 -62.70551691 163.88710406 -63.05174637 160.28498769 C-63.05842173 158.70292712 -63.07038386 157.12088235 -63.08690262 155.53889394 C-63.09141434 154.73258534 -63.09592606 153.92627675 -63.10057449 153.09553456 C-63.11239744 151.09745638 -63.13033348 149.09941611 -63.14940262 147.10139394 C-64.13940262 147.10139394 -65.12940262 147.10139394 -66.14940262 147.10139394 Z M54.16700363 147.88264394 C50.39098202 148.05026342 46.63132118 148.15327351 42.85059738 148.10139394 C42.19059738 149.42139394 41.53059738 150.74139394 40.85059738 152.10139394 C42.36480739 153.61560395 43.77532506 153.3144925 45.88575363 153.41780019 C46.69464035 153.45969472 47.50352707 153.50158925 48.33692551 153.54475331 C49.18706223 153.58406972 50.03719894 153.62338613 50.91309738 153.66389394 C51.76710129 153.70707753 52.62110519 153.75026113 53.50098801 153.79475331 C55.61731775 153.90116095 57.73393551 154.00181125 59.85059738 154.10139394 C59.85059738 155.09139394 59.85059738 156.08139394 59.85059738 157.10139394 C58.73040207 157.15037831 57.61020676 157.19936269 56.45606613 157.24983144 C54.98338536 157.3248725 53.51073031 157.40041975 52.03809738 157.47639394 C51.3001091 157.50733144 50.56212082 157.53826894 49.80176926 157.57014394 C46.03166623 157.77485541 44.05408997 157.96573221 40.85059738 160.10139394 C38.65800608 167.05351269 38.36882377 173.2765165 40.85059738 180.10139394 C41.51059738 181.09139394 42.17059738 182.08139394 42.85059738 183.10139394 C44.94966079 183.55219526 44.94966079 183.55219526 47.40455246 183.47370839 C48.82161232 183.48305158 48.82161232 183.48305158 50.26729965 183.49258351 C51.29123322 183.48337377 52.31516678 183.47416402 53.37012863 183.46467519 C54.94621147 183.46542295 54.94621147 183.46542295 56.55413437 183.46618581 C58.78098563 183.46384179 61.00783936 183.45409409 63.23463058 183.43757558 C66.63876284 183.41406203 70.04210812 183.41700256 73.44630051 183.42365956 C75.60841454 183.41808026 77.77052528 183.4109688 79.93262863 183.40217519 C80.9504895 183.4030866 81.96835037 183.403998 83.01705551 183.40493703 C83.97121857 183.39540502 84.92538162 183.385873 85.90845871 183.37605214 C86.74403809 183.37144475 87.57961746 183.36683736 88.44051743 183.36209035 C91.21577323 183.06189316 93.34605888 182.32236093 95.85059738 181.10139394 C97.25669498 178.0066007 97.0497054 174.5270055 97.10059738 171.16389394 C97.13926926 169.63442128 97.13926926 169.63442128 97.17872238 168.07405019 C96.70535287 163.78554781 94.97503097 161.18955548 91.91309738 158.22639394 C89.90606497 156.86623424 89.90606497 156.86623424 87.60059738 157.41389394 C86.73434738 157.75420644 86.73434738 157.75420644 85.85059738 158.10139394 C86.65497238 158.88514394 87.45934738 159.66889394 88.28809738 160.47639394 C91.64458945 164.48129924 92.18027886 168.978651 91.85059738 174.10139394 C91.21651397 175.45052716 90.55361044 176.78686175 89.85059738 178.10139394 C83.76338507 178.17540606 77.67643312 178.2299304 71.58887863 178.26618886 C69.51689214 178.2812998 67.44493775 178.30178935 65.37305832 178.3277123 C62.39934505 178.36399444 59.42605365 178.38109691 56.45215988 178.39436269 C55.05678497 178.41758847 55.05678497 178.41758847 53.63322067 178.44128346 C52.7724794 178.44151006 51.91173813 178.44173665 51.02491379 178.44197011 C50.26546463 178.44863194 49.50601547 178.45529378 48.7235527 178.46215749 C48.10547745 178.34310552 47.48740219 178.22405354 46.85059738 178.10139394 C44.78539106 175.00358445 44.55582714 174.14734584 44.53809738 170.60139394 C44.52133957 169.82795644 44.50458176 169.05451894 44.48731613 168.25764394 C44.85059738 166.10139394 44.85059738 166.10139394 46.04590988 164.36311269 C48.40896312 162.71102136 50.17759764 162.59964067 53.03809738 162.41389394 C53.93915207 162.34815175 54.84020676 162.28240956 55.76856613 162.21467519 C56.7991716 162.15860097 56.7991716 162.15860097 57.85059738 162.10139394 C57.85059738 162.76139394 57.85059738 163.42139394 57.85059738 164.10139394 C56.71622238 164.39014394 55.58184738 164.67889394 54.41309738 164.97639394 C53.23747238 165.34764394 52.06184738 165.71889394 50.85059738 166.10139394 C50.52059738 166.76139394 50.19059738 167.42139394 49.85059738 168.10139394 C54.83866809 169.18408856 54.83866809 169.18408856 59.66309738 167.91389394 C61.9514876 166.30403751 61.9514876 166.30403751 62.69825363 164.06623769 C63.85059738 162.10139394 63.85059738 162.10139394 66.01465988 161.27326894 C66.82676926 161.13405019 67.63887863 160.99483144 68.47559738 160.85139394 C69.29286301 160.70186269 70.11012863 160.55233144 70.95215988 160.39826894 C71.57864426 160.30030019 72.20512863 160.20233144 72.85059738 160.10139394 C72.89184738 160.86451894 72.93309738 161.62764394 72.97559738 162.41389394 C73.62731315 165.35172543 73.62731315 165.35172543 76.53809738 166.91389394 C79.90540111 168.12104056 82.30808643 168.35443043 85.85059738 168.10139394 C86.34559738 166.61639394 86.34559738 166.61639394 86.85059738 165.10139394 C82.39559738 164.11139394 82.39559738 164.11139394 77.85059738 163.10139394 C77.85059738 162.11139394 77.85059738 161.12139394 77.85059738 160.10139394 C79.50059738 160.10139394 81.15059738 160.10139394 82.85059738 160.10139394 C82.85059738 159.11139394 82.85059738 158.12139394 82.85059738 157.10139394 C80.87059738 156.77139394 78.89059738 156.44139394 76.85059738 156.10139394 C76.85059738 154.78139394 76.85059738 153.46139394 76.85059738 152.10139394 C83.12059738 152.10139394 89.39059738 152.10139394 95.85059738 152.10139394 C95.85059738 150.78139394 95.85059738 149.46139394 95.85059738 148.10139394 C93.93762495 146.18842151 91.10844281 146.96874802 88.56373215 146.96272206 C87.66839767 146.96723378 86.7730632 146.9717455 85.85059738 146.97639394 C84.467957 146.97929433 84.467957 146.97929433 83.05738449 146.98225331 C73.41774552 147.04009597 63.79575507 147.44764729 54.16700363 147.88264394 Z M-11.14940262 157.10139394 C-11.14940262 157.76139394 -11.14940262 158.42139394 -11.14940262 159.10139394 C-8.69968638 160.32625206 -7.00705801 160.26862201 -4.27440262 160.28889394 C-3.41073074 160.30307363 -2.54705887 160.31725331 -1.65721512 160.33186269 C0.97472618 160.08998646 2.59040282 159.43122934 4.85059738 158.10139394 C4.52059738 157.44139394 4.19059738 156.78139394 3.85059738 156.10139394 C-1.90307808 154.91097832 -5.63908999 155.14982488 -11.14940262 157.10139394 Z M56.85059738 172.10139394 C56.52059738 173.09139394 56.19059738 174.08139394 55.85059738 175.10139394 C63.77059738 175.10139394 71.69059738 175.10139394 79.85059738 175.10139394 C80.18059738 174.11139394 80.51059738 173.12139394 80.85059738 172.10139394 C72.82052502 170.59575537 64.93626862 171.46356793 56.85059738 172.10139394 Z M-66.14940262 173.10139394 C-69.69444848 178.41896273 -68.06719031 185.93430834 -67.14940262 192.10139394 C-66.1605327 196.2057998 -64.76561683 198.72622879 -61.55174637 201.46076894 C-53.43650648 206.17180283 -40.04471555 205.5171736 -31.15330887 203.21076894 C-28.04732958 202.39531579 -28.04732958 202.39531579 -26.71190262 199.97639394 C-26.52627762 199.35764394 -26.34065262 198.73889394 -26.14940262 198.10139394 C-29.19639594 197.20521943 -30.79651159 196.97829242 -33.83690262 198.03889394 C-37.5889149 199.24236958 -40.56918895 199.19421796 -44.46971512 199.10530019 C-48.72877619 199.09909164 -52.92467935 199.59802265 -57.14940262 200.10139394 C-57.14940262 199.11139394 -57.14940262 198.12139394 -57.14940262 197.10139394 C-56.15940262 196.77139394 -55.16940262 196.44139394 -54.14940262 196.10139394 C-54.64311356 195.69147206 -55.13682449 195.28155019 -55.64549637 194.85920644 C-56.28616043 194.32037831 -56.92682449 193.78155019 -57.58690262 193.22639394 C-58.22498856 192.69272206 -58.86307449 192.15905019 -59.52049637 191.60920644 C-62.87599607 188.50315636 -62.47024996 184.77068059 -62.71190262 180.47639394 C-62.75508621 179.76998769 -62.79826981 179.06358144 -62.84276199 178.33576894 C-62.94885012 176.59120857 -63.04963151 174.84632697 -63.14940262 173.10139394 C-64.13940262 173.10139394 -65.12940262 173.10139394 -66.14940262 173.10139394 Z " fill="#B12A21" transform="translate(79.1494026184082,-0.1013939380645752)"/>
<path d="M0 0 C5.28 0 10.56 0 16 0 C16 0.66 16 1.32 16 2 C14.68 2 13.36 2 12 2 C12.495 3.485 12.495 3.485 13 5 C12.01 5.66 11.02 6.32 10 7 C10.804375 7.61875 11.60875 8.2375 12.4375 8.875 C15.58565057 12.01418148 15.82133079 15.21330789 16.25 19.5 C15.9076107 22.923893 15.28781592 24.38385999 13 27 C9.81602948 27.77220516 6.66846419 27.67614026 3.40625 27.62890625 C2.46317993 27.63131821 1.52010986 27.63373016 0.54846191 27.63621521 C-1.44543665 27.63523571 -3.43936206 27.62181751 -5.43310547 27.59692383 C-8.4888934 27.56262466 -11.54178952 27.57625625 -14.59765625 27.59570312 C-16.5338665 27.58880468 -18.47006928 27.57913231 -20.40625 27.56640625 C-21.32192749 27.57136612 -22.23760498 27.57632599 -23.18103027 27.58143616 C-29.49302756 27.46397325 -29.49302756 27.46397325 -32.07250977 25.10327148 C-33.70992313 21.39010587 -33.61975538 17.96643441 -33 14 C-31.625 11.5 -31.625 11.5 -29 10 C-25.67063019 9.39466003 -22.3790312 9.12897066 -19 9 C-19 10.32 -19 11.64 -19 13 C-21.31 13.66 -23.62 14.32 -26 15 C-23.12997964 15.82000582 -21.30306972 16.07215946 -18.375 15.375 C-15.789289 14.17299749 -15.789289 14.17299749 -14.75 11.4375 C-13 9 -13 9 -10.81640625 8.453125 C-8.53808256 8.21143076 -6.29005429 8.05281048 -4 8 C-3.6596875 9.175625 -3.6596875 9.175625 -3.3125 10.375 C-2.22835589 13.14184221 -2.22835589 13.14184221 0.25 14.3125 C3.26577013 15.06644253 5.90311028 15.14404138 9 15 C9.33 14.34 9.66 13.68 10 13 C5.545 12.01 5.545 12.01 1 11 C1 10.01 1 9.02 1 8 C2.65 7.67 4.3 7.34 6 7 C3.8614515 4.8614515 2.86724686 4.57344937 0 4 C0 2.68 0 1.36 0 0 Z M-20 20 C-20.33 20.99 -20.66 21.98 -21 23 C-13.08 23 -5.16 23 3 23 C3.33 22.01 3.66 21.02 4 20 C-4.03007236 18.49436143 -11.91432876 19.36217399 -20 20 Z " fill="#B33028" transform="translate(156,152)"/>
<path d="M0 0 C0.33 0.99 0.66 1.98 1 3 C1.99 3 2.98 3 4 3 C4 5.64 4 8.28 4 11 C5.98 10.67 7.96 10.34 10 10 C10.33 11.65 10.66 13.3 11 15 C4.375 16.125 4.375 16.125 1 15 C1 15.99 1 16.98 1 18 C2.98 18 4.96 18 7 18 C6.6875 19.9375 6.6875 19.9375 6 22 C5.01 22.33 4.02 22.66 3 23 C2.67 23.99 2.34 24.98 2 26 C4.66769422 25.84756033 6.44334709 25.55349011 8.375 23.6328125 C9.60348251 22.10452176 10.80289981 20.55299484 12 19 C14.40545638 17.79727181 15.94996953 17.89928528 18.625 17.9375 C19.85089844 17.95103516 19.85089844 17.95103516 21.1015625 17.96484375 C21.72804687 17.97644531 22.35453125 17.98804688 23 18 C22.67 17.01 22.34 16.02 22 15 C22.66 15 23.32 15 24 15 C24.625 16.8125 24.625 16.8125 25 19 C24.34 19.99 23.68 20.98 23 22 C22.60986284 23.9896995 22.26797351 25.99019869 22 28 C17.08497242 29.29235715 12.22709898 29.11135517 7.1875 29.0625 C6.30384766 29.05798828 5.42019531 29.05347656 4.50976562 29.04882812 C2.33981441 29.03709866 0.16989828 29.01916495 -2 29 C-5.18487459 20.51539338 -4.35781717 11.82581161 -3 3 C-2.01 3 -1.02 3 0 3 C0 2.01 0 1.02 0 0 Z M15 21 C15.33 22.32 15.66 23.64 16 25 C17.89179203 25.6814823 17.89179203 25.6814823 20 26 C20.66 25.34 21.32 24.68 22 24 C20.7511573 22.4166747 20.7511573 22.4166747 19 21 C17.68 21 16.36 21 15 21 Z " fill="#B6382F" transform="translate(122,112)"/>
<path d="M0 0 C2.97 0.495 2.97 0.495 6 1 C5.91621094 1.81984375 5.83242187 2.6396875 5.74609375 3.484375 C5.64425781 4.56203125 5.54242188 5.6396875 5.4375 6.75 C5.33308594 7.81734375 5.22867187 8.8846875 5.12109375 9.984375 C5.01439926 12.64141204 5.18069605 14.49960572 6 17 C7.65 16.67 9.3 16.34 11 16 C12.27617135 18.55234269 12.14258663 20.41455541 12.17578125 23.26953125 C12.19962891 24.32333984 12.22347656 25.37714844 12.24804688 26.46289062 C12.29078645 28.68405343 12.32216087 30.90546594 12.34179688 33.12695312 C12.44786606 39.53077455 12.44786606 39.53077455 15.04296875 45.26171875 C16.01169922 46.12216797 16.01169922 46.12216797 17 47 C13.5878589 45.58807955 11.83963713 44.21936497 10 41 C9.78673315 38.3270555 9.71454369 35.9073788 9.8125 33.25 C9.82603516 32.55261719 9.83957031 31.85523438 9.85351562 31.13671875 C9.8887055 29.42414459 9.94250845 27.71197059 10 26 C6.23569087 27.25476971 5.94955892 28.69422618 4 32 C3.34 32 2.68 32 2 32 C2 29.36 2 26.72 2 24 C0.35 23.67 -1.3 23.34 -3 23 C-4.16009247 19.51972258 -4.20416521 16.66678357 -4.25 13 C-4.27578125 11.7625 -4.3015625 10.525 -4.328125 9.25 C-4 6 -4 6 -2.546875 4.25 C-2.03640625 3.8375 -1.5259375 3.425 -1 3 C-0.67 2.01 -0.34 1.02 0 0 Z " fill="#B4342C" transform="translate(6,147)"/>
<path d="M0 0 C0.99 1.0209375 0.99 1.0209375 2 2.0625 C5.55592431 4.35903445 6.93526388 4.2163475 10.9375 3.5546875 C13.10988935 3.05864769 13.10988935 3.05864769 15.29296875 1.734375 C19.30341012 0.64640533 21.87888577 2.45132735 25.3125 4.375 C25.95767578 4.71789062 26.60285156 5.06078125 27.26757812 5.4140625 C28.85371207 6.2600006 30.42809733 7.12790244 32 8 C31.67 8.66 31.34 9.32 31 10 C30.34 9.67 29.68 9.34 29 9 C28.67 9.99 28.34 10.98 28 12 C27.34 11.01 26.68 10.02 26 9 C22.90664128 8.74041745 20.02817502 8.67613834 16.9375 8.75 C15.56597778 8.7653479 15.56597778 8.7653479 14.16674805 8.78100586 C5.44032732 8.9106388 -3.28273934 9.28670217 -11.99829102 9.73144531 C-13.01334717 9.78010742 -14.02840332 9.82876953 -15.07421875 9.87890625 C-16.42906372 9.94960327 -16.42906372 9.94960327 -17.8112793 10.02172852 C-20 10 -20 10 -22 9 C-21.67 7.68 -21.34 6.36 -21 5 C-19.53626953 5.01740234 -19.53626953 5.01740234 -18.04296875 5.03515625 C-16.77066406 5.04417969 -15.49835938 5.05320313 -14.1875 5.0625 C-12.29064453 5.07990234 -12.29064453 5.07990234 -10.35546875 5.09765625 C-7.00394763 5.16159116 -7.00394763 5.16159116 -4 4 C-3.67 3.34 -3.34 2.68 -3 2 C-2.34 2 -1.68 2 -1 2 C-0.67 1.34 -0.34 0.68 0 0 Z " fill="#B5372F" transform="translate(148,139)"/>
<path d="M0 0 C0.763125 0.0825 1.52625 0.165 2.3125 0.25 C1.673125 0.53875 1.03375 0.8275 0.375 1.125 C-1.83956079 2.07823451 -1.83956079 2.07823451 -2.6875 4.25 C-1.0375 4.91 0.6125 5.57 2.3125 6.25 C2.3125 7.57 2.3125 8.89 2.3125 10.25 C1.6525 10.25 0.9925 10.25 0.3125 10.25 C0.61285156 10.87648438 0.91320312 11.50296875 1.22265625 12.1484375 C1.60292969 12.96570313 1.98320312 13.78296875 2.375 14.625 C2.75785156 15.43710938 3.14070313 16.24921875 3.53515625 17.0859375 C3.79167969 17.80007812 4.04820312 18.51421875 4.3125 19.25 C3.9825 19.91 3.6525 20.57 3.3125 21.25 C2.8175 20.734375 2.3225 20.21875 1.8125 19.6875 C-1.93464452 17.5328919 -4.49594613 18.48154846 -8.6875 19.25 C-8.6875 19.91 -8.6875 20.57 -8.6875 21.25 C-7.759375 21.04375 -6.83125 20.8375 -5.875 20.625 C-2.6875 20.25 -2.6875 20.25 0.3125 22.25 C-0.6775 24.725 -0.6775 24.725 -1.6875 27.25 C-4.9875 26.26 -8.2875 25.27 -11.6875 24.25 C-11.6875 22.93 -11.6875 21.61 -11.6875 20.25 C-13.6675 20.25 -15.6475 20.25 -17.6875 20.25 C-17.6875 19.59 -17.6875 18.93 -17.6875 18.25 C-16.82125 18.12625 -16.82125 18.12625 -15.9375 18 C-12.82705467 16.96318489 -11.66843665 15.89124887 -9.6875 13.25 C-8.77771566 10.28553418 -8.18420098 7.30863232 -7.6875 4.25 C-7.0275 4.25 -6.3675 4.25 -5.6875 4.25 C-5.254375 3.59 -4.82125 2.93 -4.375 2.25 C-2.6875 0.25 -2.6875 0.25 0 0 Z " fill="#B4322A" transform="translate(166.6875,108.75)"/>
<path d="M0 0 C2.0245738 1.93254772 3.42105792 3.63158688 5 6 C5.85658203 5.89171875 5.85658203 5.89171875 6.73046875 5.78125 C15.83701234 4.73884755 24.9573373 4.29434805 34 6 C33.67 8.31 33.34 10.62 33 13 C22.40927017 15.55034119 12.00893186 12.52196457 2 9 C1.84660156 8.22269531 1.69320312 7.44539062 1.53515625 6.64453125 C1.08271418 4.40874088 0.57230119 2.20744743 0 0 Z " fill="#B33229" transform="translate(55,165)"/>
<path d="M0 0 C5.28 0 10.56 0 16 0 C16 0.66 16 1.32 16 2 C14.68 2 13.36 2 12 2 C12.33 2.99 12.66 3.98 13 5 C12.01 5.66 11.02 6.32 10 7 C10.804375 7.61875 11.60875 8.2375 12.4375 8.875 C16.15135247 12.49443249 15.89481263 17.07531881 16 22 C15.34 22 14.68 22 14 22 C13.34 19.69 12.68 17.38 12 15 C11.01 15.66 10.02 16.32 9 17 C9.33 15.68 9.66 14.36 10 13 C5.545 12.01 5.545 12.01 1 11 C1 10.01 1 9.02 1 8 C2.65 7.67 4.3 7.34 6 7 C3.8614515 4.8614515 2.86724686 4.57344937 0 4 C0 2.68 0 1.36 0 0 Z " fill="#B63931" transform="translate(156,152)"/>
<path d="M0 0 C0.33 0.99 0.66 1.98 1 3 C1.99 3 2.98 3 4 3 C4 5.64 4 8.28 4 11 C5.98 10.67 7.96 10.34 10 10 C10.33 11.65 10.66 13.3 11 15 C8.69 15.33 6.38 15.66 4 16 C2.92474806 13.34771188 1.90543849 10.71631546 1 8 C-1.12046792 11.53411321 -1.53199289 14.94393835 -2 19 C-2.66 19 -3.32 19 -4 19 C-3.67 13.72 -3.34 8.44 -3 3 C-2.01 3 -1.02 3 0 3 C0 2.01 0 1.02 0 0 Z " fill="#BB463E" transform="translate(122,112)"/>
<path d="M0 0 C0.66 0 1.32 0 2 0 C2.625 1.8125 2.625 1.8125 3 4 C2.01 5.485 2.01 5.485 1 7 C0.60986284 8.9896995 0.26797351 10.99019869 0 13 C-2.31 13.33 -4.62 13.66 -7 14 C-7.33 12.02 -7.66 10.04 -8 8 C-9.98 8.66 -11.96 9.32 -14 10 C-10.25 4.125 -10.25 4.125 -8 3 C-6.45976004 2.93049459 -4.91665012 2.91547643 -3.375 2.9375 C-2.14910156 2.95103516 -2.14910156 2.95103516 -0.8984375 2.96484375 C0.04128906 2.98224609 0.04128906 2.98224609 1 3 C0.67 2.01 0.34 1.02 0 0 Z M-7 6 C-6.67 7.32 -6.34 8.64 -6 10 C-4.10820797 10.6814823 -4.10820797 10.6814823 -2 11 C-1.34 10.34 -0.68 9.68 0 9 C-1.2488427 7.4166747 -1.2488427 7.4166747 -3 6 C-4.32 6 -5.64 6 -7 6 Z " fill="#B73B32" transform="translate(144,127)"/>
<path d="M0 0 C4.29 0 8.58 0 13 0 C12.01 0.495 12.01 0.495 11 1 C11 1.66 11 2.32 11 3 C12.65 3.33 14.3 3.66 16 4 C16 5.65 16 7.3 16 9 C15.34 8.67 14.68 8.34 14 8 C14.33 7.01 14.66 6.02 15 5 C9.72 5 4.44 5 -1 5 C-0.67 3.35 -0.34 1.7 0 0 Z " fill="#B4342C" transform="translate(130,114)"/>
<path d="M0 0 C2.42999536 2.27364177 3.42805835 3.68273845 4 7 C4.99 5.35 5.98 3.7 7 2 C8.31223496 5.93670488 7.24296256 8.12488144 6 12 C5.34 12 4.68 12 4 12 C3.01 14.31 2.02 16.62 1 19 C0.67 18.34 0.34 17.68 0 17 C0.53625 15.824375 1.0725 14.64875 1.625 13.4375 C3.47639741 8.91278435 2.52983631 6.1040637 0.76171875 1.6875 C0.51035156 1.130625 0.25898438 0.57375 0 0 Z " fill="#BF514A" transform="translate(145,49)"/>
<path d="M0 0 C-0.66 1.65 -1.32 3.3 -2 5 C-4.97 4.01 -7.94 3.02 -11 2 C-10.01 1.67 -9.02 1.34 -8 1 C-8 0.34 -8 -0.32 -8 -1 C-4.59745511 -2.2151946 -3.06748874 -1.86240388 0 0 Z " fill="#BA443C" transform="translate(167,131)"/>
<path d="M0 0 C0.66 0 1.32 0 2 0 C2 1.32 2 2.64 2 4 C1.34 4 0.68 4 0 4 C0 2.68 0 1.36 0 0 Z M0 5 C-0.639375 5.474375 -1.27875 5.94875 -1.9375 6.4375 C-4.84850272 10.05420035 -4.80649782 13.47204894 -5 18 C-5.66 18 -6.32 18 -7 18 C-7.28330076 14.29190786 -7.45205753 10.6981574 -7 7 C-3.2 3.4 -3.2 3.4 0 5 Z " fill="#C0524B" transform="translate(7,69)"/>
<path d="M0 0 C0.66 0 1.32 0 2 0 C2.625 1.8125 2.625 1.8125 3 4 C2.01 5.485 2.01 5.485 1 7 C0.60986284 8.9896995 0.26797351 10.99019869 0 13 C-0.5534764 10.92446352 -1 9.15634036 -1 7 C-3.475 6.01 -3.475 6.01 -6 5 C-6 4.34 -6 3.68 -6 3 C-3.69 3 -1.38 3 1 3 C0.67 2.01 0.34 1.02 0 0 Z " fill="#BD4C44" transform="translate(144,127)"/>
<path d="M0 0 C0.33 0.99 0.66 1.98 1 3 C-2.21451269 4.60725635 -5.43612536 4.05748185 -9 4 C-9.33 3.01 -9.66 2.02 -10 1 C-6.78548731 -0.60725635 -3.56387464 -0.05748185 0 0 Z " fill="#BD4C45" transform="translate(152,152)"/>
<path d="M0 0 C0.99 0.33 1.98 0.66 3 1 C1.74874616 4.75376152 0.4347596 5.24073289 -3 7 C-3.66 7 -4.32 7 -5 7 C-5 9.97 -5 12.94 -5 16 C-5.99 15.01 -6.98 14.02 -8 13 C-7.86957479 9.86979486 -7.54105371 7.78452789 -5.75 5.1875 C-3.55190182 3.69593338 -1.61106596 3.35284675 1 3 C0.67 2.01 0.34 1.02 0 0 Z " fill="#BE4F48" transform="translate(44,65)"/>
<path d="M0 0 C2.62799102 1.86502588 3.86365751 3.30410791 4.48828125 6.4921875 C4.72593573 8.9964272 4.9040664 11.48653979 5 14 C4.34 14 3.68 14 3 14 C2.34 11.69 1.68 9.38 1 7 C0.01 7.66 -0.98 8.32 -2 9 C-1.67 7.68 -1.34 6.36 -1 5 C-0.34 5 0.32 5 1 5 C0.67 3.35 0.34 1.7 0 0 Z " fill="#C1564F" transform="translate(167,160)"/>
<path d="M0 0 C0.33 1.98 0.66 3.96 1 6 C-2.71599191 6.20086443 -3.77208445 6.1519437 -7 4 C-7 3.34 -7 2.68 -7 2 C-2.25 0 -2.25 0 0 0 Z " fill="#AE241B" transform="translate(136,135)"/>
<path d="M0 0 C0 0.99 0 1.98 0 3 C-5.27203646 3.27036084 -9.92523206 2.26305335 -15 1 C-15 0.67 -15 0.34 -15 0 C-13.06325815 -0.19517554 -11.12555991 -0.38087873 -9.1875 -0.5625 C-8.10855469 -0.66691406 -7.02960938 -0.77132812 -5.91796875 -0.87890625 C-3 -1 -3 -1 0 0 Z " fill="#CC746E" transform="translate(164,197)"/>
<path d="M0 0 C2.31 0.66 4.62 1.32 7 2 C6.67 2.99 6.34 3.98 6 5 C3.08517222 5.80967438 1.53886783 6.21845993 -1.3125 5.0625 C-1.869375 4.711875 -2.42625 4.36125 -3 4 C-2.67 3.34 -2.34 2.68 -2 2 C-1.34 2 -0.68 2 0 2 C0 1.34 0 0.68 0 0 Z " fill="#B63830" transform="translate(155,135)"/>
<path d="M0 0 C1.76462683 3.08809695 2 4.23312136 2 8 C0.68 8 -0.64 8 -2 8 C-2.33 9.32 -2.66 10.64 -3 12 C-3.2954439 6.97745369 -2.98514628 4.10457614 0 0 Z " fill="#AD2219" transform="translate(123,119)"/>
<path d="M0 0 C0 0.66 0 1.32 0 2 C-3.3 2 -6.6 2 -10 2 C-10 1.01 -10 0.02 -10 -1 C-5.95821645 -2.34726118 -3.96013719 -1.32004573 0 0 Z " fill="#CB716C" transform="translate(32,198)"/>
<path d="M0 0 C2 1.8125 2 1.8125 4 4 C4 4.99 4 5.98 4 7 C1.03 6.505 1.03 6.505 -2 6 C-2 5.34 -2 4.68 -2 4 C-2.66 3.67 -3.32 3.34 -4 3 C-3.01 2.67 -2.02 2.34 -1 2 C-0.67 1.34 -0.34 0.68 0 0 Z " fill="#B02921" transform="translate(164,158)"/>
<path d="M0 0 C2.64 1.32 5.28 2.64 8 4 C7.67 4.66 7.34 5.32 7 6 C6.34 5.67 5.68 5.34 5 5 C4.67 5.99 4.34 6.98 4 8 C3.34 7.01 2.68 6.02 2 5 C-0.19454681 4.42006301 -0.19454681 4.42006301 -2.625 4.3125 C-3.44226563 4.24675781 -4.25953125 4.18101562 -5.1015625 4.11328125 C-5.72804687 4.07589844 -6.35453125 4.03851563 -7 4 C-7 3.67 -7 3.34 -7 3 C-3.535 2.505 -3.535 2.505 0 2 C0 1.34 0 0.68 0 0 Z " fill="#BE4F48" transform="translate(172,143)"/>
<path d="M0 0 C0.66 0 1.32 0 2 0 C2.66 1.98 3.32 3.96 4 6 C3.01 5.34 2.02 4.68 1 4 C0.61199219 4.49113281 0.22398437 4.98226562 -0.17578125 5.48828125 C-2.61211696 7.50725753 -4.06930672 7.30898805 -7.1875 7.1875 C-8.53908203 7.14689453 -8.53908203 7.14689453 -9.91796875 7.10546875 C-10.60503906 7.07066406 -11.29210937 7.03585938 -12 7 C-12 6.67 -12 6.34 -12 6 C-11.38511719 5.98582031 -10.77023438 5.97164062 -10.13671875 5.95703125 C-7.6651226 5.81117948 -5.40265902 5.60707755 -3 5 C-1.00916823 2.5748212 -1.00916823 2.5748212 0 0 Z " fill="#C6645E" transform="translate(144,191)"/>
<path d="M0 0 C1.65 0 3.3 0 5 0 C5 0.66 5 1.32 5 2 C6.65 2.33 8.3 2.66 10 3 C10 3.33 10 3.66 10 4 C8.01432292 3.96744792 6.02864583 3.93489583 4.04296875 3.90234375 C1.79694539 3.91736783 1.79694539 3.91736783 -1 5 C-1 5.66 -1 6.32 -1 7 C-1.66 6.67 -2.32 6.34 -3 6 C-2.505 5.195625 -2.01 4.39125 -1.5 3.5625 C0.08419653 1.35103815 0.08419653 1.35103815 0 0 Z " fill="#BB473F" transform="translate(63,157)"/>
<path d="M0 0 C1 3 1 3 0 6 C3.465 7.485 3.465 7.485 7 9 C7 9.66 7 10.32 7 11 C3.04179141 10.43454163 0.3340947 9.19097652 -3 7 C-1.125 2.25 -1.125 2.25 0 0 Z " fill="#B73B33" transform="translate(172,131)"/>
<path d="M0 0 C1.98 0 3.96 0 6 0 C6 1.32 6 2.64 6 4 C3.03 4.66 0.06 5.32 -3 6 C-2.505 5.38125 -2.01 4.7625 -1.5 4.125 C0.19222773 2.16119096 0.19222773 2.16119096 0 0 Z " fill="#BD4C45" transform="translate(131,161)"/>
<path d="M0 0 C5.625 -0.25 5.625 -0.25 9 2 C9 2.66 9 3.32 9 4 C7.02 4 5.04 4 3 4 C3 3.34 3 2.68 3 2 C2.01 2 1.02 2 0 2 C0 1.34 0 0.68 0 0 Z " fill="#B02920" transform="translate(139,175)"/>
<path d="M0 0 C0.66 0 1.32 0 2 0 C2.5625 1.9375 2.5625 1.9375 3 4 C2.67 4.33 2.34 4.66 2 5 C1.63239269 7.32817964 1.29758419 9.6618385 1 12 C0.34 12 -0.32 12 -1 12 C-1.14285714 3.42857143 -1.14285714 3.42857143 0 0 Z " fill="#C45E57" transform="translate(119,119)"/>
<path d="M0 0 C1.65 0 3.3 0 5 0 C4.01 0.495 4.01 0.495 3 1 C3 1.66 3 2.32 3 3 C4.65 3.33 6.3 3.66 8 4 C8 5.65 8 7.3 8 9 C7.34 8.67 6.68 8.34 6 8 C6.33 7.01 6.66 6.02 7 5 C4.69 5 2.38 5 0 5 C0 4.34 0 3.68 0 3 C0.66 3 1.32 3 2 3 C2 2.34 2 1.68 2 1 C1.34 0.67 0.68 0.34 0 0 Z " fill="#BE4E46" transform="translate(138,114)"/>
<path d="M0 0 C1.45880109 0.14107747 2.91703551 0.28802415 4.375 0.4375 C5.59316406 0.55931641 5.59316406 0.55931641 6.8359375 0.68359375 C9 1 9 1 11 2 C11 2.66 11 3.32 11 4 C3.57142857 3 3.57142857 3 0 2 C0 1.34 0 0.68 0 0 Z " fill="#BB463F" transform="translate(64,174)"/>
<path d="M0 0 C0.99 0 1.98 0 3 0 C3.33 0.99 3.66 1.98 4 3 C4.66 3.33 5.32 3.66 6 4 C4.625 6.5 4.625 6.5 3 9 C2.34 9 1.68 9 1 9 C0.67 6.03 0.34 3.06 0 0 Z " fill="#BC4840" transform="translate(7,170)"/>
<path d="M0 0 C2.475 0.495 2.475 0.495 5 1 C5.33 2.65 5.66 4.3 6 6 C5.01 6 4.02 6 3 6 C2.67 5.34 2.34 4.68 2 4 C1.34 4 0.68 4 0 4 C0 2.68 0 1.36 0 0 Z " fill="#B63930" transform="translate(119,115)"/>
<path d="M0 0 C0.66 0 1.32 0 2 0 C2.33 1.32 2.66 2.64 3 4 C-0.3 4 -3.6 4 -7 4 C-7 3.34 -7 2.68 -7 2 C-4.69 2 -2.38 2 0 2 C0 1.34 0 0.68 0 0 Z " fill="#B63A32" transform="translate(23,203)"/>
<path d="M0 0 C0.33 0.66 0.66 1.32 1 2 C0.34 2 -0.32 2 -1 2 C-0.54947266 2.93972656 -0.54947266 2.93972656 -0.08984375 3.8984375 C0.29042969 4.71570313 0.67070312 5.53296875 1.0625 6.375 C1.63677734 7.59316406 1.63677734 7.59316406 2.22265625 8.8359375 C2.47917969 9.55007812 2.73570312 10.26421875 3 11 C2.67 11.66 2.34 12.32 2 13 C-0.04219706 11.30820672 -0.91793306 10.36272334 -1.51171875 7.73828125 C-1.56972656 6.93777344 -1.62773437 6.13726562 -1.6875 5.3125 C-1.75324219 4.50425781 -1.81898438 3.69601563 -1.88671875 2.86328125 C-1.92410156 2.24839844 -1.96148437 1.63351563 -2 1 C-1.34 0.67 -0.68 0.34 0 0 Z " fill="#C0534C" transform="translate(168,117)"/>
<path d="M0 0 C0.33 0.99 0.66 1.98 1 3 C3.31 3.33 5.62 3.66 8 4 C8 4.66 8 5.32 8 6 C5.36 6 2.72 6 0 6 C-0.38218767 4.34385343 -0.71395102 2.67542976 -1 1 C-0.67 0.67 -0.34 0.34 0 0 Z " fill="#BC4942" transform="translate(123,135)"/>
<path d="M0 0 C0.66 0 1.32 0 2 0 C2.5625 1.9375 2.5625 1.9375 3 4 C1.10871658 5.89128342 -1.57067726 5.2366852 -4.08984375 5.328125 C-5.03537109 5.16570312 -5.03537109 5.16570312 -6 5 C-6.66 4.01 -7.32 3.02 -8 2 C-5.69 2.33 -3.38 2.66 -1 3 C-0.67 2.01 -0.34 1.02 0 0 Z " fill="#C1554E" transform="translate(71,115)"/>
<path d="M0 0 C0.99 0.495 0.99 0.495 2 1 C1.67 1.66 1.34 2.32 1 3 C2.32 3 3.64 3 5 3 C5 3.66 5 4.32 5 5 C5.99 5 6.98 5 8 5 C8 5.66 8 6.32 8 7 C3.52599758 7.36275695 3.52599758 7.36275695 1.1875 5.75 C0 4 0 4 0 0 Z " fill="#C0534D" transform="translate(134,172)"/>
<path d="M0 0 C3.4375 1.3125 3.4375 1.3125 7 3 C7.33 3.99 7.66 4.98 8 6 C5.36 6 2.72 6 0 6 C1.32 5.34 2.64 4.68 4 4 C2.68 3.34 1.36 2.68 0 2 C0 1.34 0 0.68 0 0 Z " fill="#B73C34" transform="translate(165,140)"/>
<path d="M0 0 C1.32 0.33 2.64 0.66 4 1 C4 1.66 4 2.32 4 3 C-0.29 3 -4.58 3 -9 3 C-9 2.67 -9 2.34 -9 2 C-6.03 2 -3.06 2 0 2 C0 1.34 0 0.68 0 0 Z " fill="#AC1F16" transform="translate(71,193)"/>
</svg>
